<svg width="1280" height="1280" xmlns="http://www.w3.org/2000/svg" class="icon">
 <defs>
  <style type="text/css"/>
  <filter id="svg_4_blur" x="-50%" y="-50%" width="200%" height="200%">
   <feGaussianBlur in="SourceGraphic" stdDeviation="0"/>
  </filter>
 </defs>
 <g>
  <title>background</title>
  <rect fill="none" id="canvas_background" height="1282" width="1282" y="-1" x="-1"/>
 </g>
 <g>
  <title>Layer 1</title>
  <rect fill="#000000" stroke="null" stroke-width="null" stroke-opacity="null" width="1280" height="1280" id="svg_4" filter="url(#svg_4_blur)" y="0" x="0"/>
  <path id="svg_1" fill="#dddddd" d="m1143.80802,640.00002c0,278.016 -225.792,503.808 -503.808,503.808s-503.808,-225.28 -503.808,-503.808s225.792,-503.808 503.808,-503.808s503.808,225.792 503.808,503.808zm-503.808,-361.472c-199.68,0 -361.984,161.792 -361.984,361.984s161.792,361.984 361.984,361.984s361.984,-161.792 361.984,-361.984s-161.792,-361.984 -361.984,-361.984z"/>
  <path id="svg_2" fill="#dddddd" d="m919.552,640c0,154.112 -124.928,279.552 -279.552,279.552c-154.112,0 -279.552,-124.928 -279.552,-279.552s124.928,-279.552 279.552,-279.552c154.624,0 279.552,125.44 279.552,279.552zm-279.552,-200.704c-111.104,0 -200.704,90.112 -200.704,200.704s90.112,201.216 200.704,201.216s200.704,-90.112 200.704,-200.704s-89.6,-201.216 -200.704,-201.216z"/>
  <path id="svg_3" fill="#555555" d="m507.90398,639.74401c0,72.704 58.88,132.096 132.096,132.096c72.704,0 132.096,-58.88 132.096,-132.096s-59.392,-131.584 -132.608,-131.584s-131.584,58.88 -131.584,131.584z"/>
 </g>
</svg>