<svg xmlns="http://www.w3.org/2000/svg" viewBox="0 0 256 256"><path fill="#999999" d="M128 229.333c55.965 0 101.333-45.368 101.333-101.333 0-55.965-45.368-101.333-101.333-101.333C72.035 26.667 26.667 72.035 26.667 128c0 55.965 45.368 101.333 101.333 101.333zm0 16c-64.802 0-117.333-52.532-117.333-117.333C10.667 63.198 63.199 10.667 128 10.667c64.802 0 117.333 52.531 117.333 117.333 0 64.802-52.531 117.333-117.333 117.333zM99.61 138.517c-8.76-7.814-14.277-19.188-14.277-31.85C85.333 83.102 104.436 64 128 64s42.667 19.102 42.667 42.667c0 12.662-5.516 24.036-14.276 31.85C186.559 149.971 208 179.148 208 213.333l-.001.501c-20.959 19.542-49.083 31.5-79.999 31.5-30.916 0-59.04-11.958-79.999-31.5a83.522 83.522 0 0 1-.001-.5c0-34.186 21.442-63.363 51.61-74.817zM128 229.333c23.565 0 45.833-8.059 63.674-22.497-3.256-32.295-30.521-57.503-63.674-57.503s-60.418 25.208-63.674 57.503c17.84 14.438 40.11 22.497 63.674 22.497zm0-96c14.727 0 26.667-11.939 26.667-26.666C154.667 91.939 142.727 80 128 80c-14.728 0-26.667 11.939-26.667 26.667 0 14.727 11.94 26.666 26.667 26.666z" class="grid-bottom-icon"></path></svg>