<svg xmlns="http://www.w3.org/2000/svg" viewBox="0 0 256 256"><path fill="#999999" d="M50.879 37.219a13.62 13.62 0 0 0-2.987.331c-7.23 1.627-11.754 8.724-10.104 15.852 8.524 36.834 31.178 72.785 68.183 107.85 35.42 33.564 67.812 52.591 96.958 57.351.726.118 1.46.178 2.195.178 7.416 0 13.428-5.927 13.428-13.238v-34.41c0-6.011-4.45-11.123-10.477-12.036l-13.606-2.061c-.6-.091-1.213.02-1.74.317l-13.801 7.768c-12.6 7.092-28.335 5.762-39.526-3.34a300.778 300.778 0 0 1-23.277-21.034c-8.074-8.102-15.495-16.477-22.26-25.126-7.274-9.299-9.238-21.612-5.21-32.662l7.585-20.802a2.613 2.613 0 0 0 .06-1.607l-3.858-13.647c-1.618-5.724-6.907-9.684-12.935-9.684H50.879zm0-15.886h28.628c13.26 0 24.896 8.712 28.456 21.305l3.859 13.647c1.046 3.7.9 7.63-.418 11.245l-7.585 20.802a18.321 18.321 0 0 0 2.805 17.588c6.37 8.141 13.367 16.04 20.995 23.694a284.685 284.685 0 0 0 22.037 19.913c6.026 4.9 14.499 5.617 21.283 1.799l13.802-7.769a19.03 19.03 0 0 1 12.175-2.223l13.606 2.061c13.89 2.104 24.143 13.885 24.143 27.738v34.41c0 16.084-13.226 29.124-29.541 29.124-1.618 0-3.232-.131-4.828-.392-32.836-5.363-67.928-25.976-105.491-61.57-39.13-37.08-63.447-75.668-72.727-115.77C18.449 41.253 32 21.333 50.879 21.333z" class="grid-bottom-icon"></path></svg>